<svg width="402" height="313" viewBox="0 0 402 313" fill="none" xmlns="http://www.w3.org/2000/svg">
<path d="M84.496 125.612C41.4502 141.265 11.5882 115.363 2.73682 100.455L2.73682 117.226C32.3658 150.21 72.6165 141.821 88.6888 136.094C137.325 118.764 151.581 56.4311 129.219 23.5876L116.641 23.5876C149.484 80.889 107.556 117.226 84.496 125.612Z" fill="black"/>
<path d="M61.4351 23.5876L45.3628 129.106" stroke="black"/>
<path d="M69.8214 23.5876L53.749 129.106" stroke="black"/>
<path d="M104.062 23.5875L2.03755 99.0576" stroke="black"/>
<path d="M116.64 24.9849L6.92921 106.045" stroke="black"/>
<path d="M129.219 66.9131L2.73654 50.245" stroke="black"/>
<path d="M127.122 75.9972L2.9665 58.6271" stroke="black"/>
<path d="M25.7971 23.5877L96.3597 119.742" stroke="black"/>
<path d="M36.2797 23.5876L103.364 114.431" stroke="black"/>
<rect x="171.914" y="99.5613" width="11.1416" height="2.79519" transform="rotate(90.517 171.914 99.5613)" fill="black"/>
<rect x="210.055" y="101.165" width="11.1416" height="2.79519" transform="rotate(93.5944 210.055 101.165)" fill="black"/>
<rect x="170.922" y="117.936" width="11.1416" height="2.79519" transform="rotate(93.5944 170.922 117.936)" fill="black"/>
<rect x="198.874" y="158.466" width="11.1416" height="2.79519" transform="rotate(93.5944 198.874 158.466)" fill="black"/>
<rect x="196.079" y="176.635" width="11.1416" height="2.79519" transform="rotate(93.5944 196.079 176.635)" fill="black"/>
<rect x="164.638" y="176.46" width="11.1416" height="2.79519" transform="rotate(89.5229 164.638 176.46)" fill="black"/>
<rect x="166.729" y="157.069" width="11.1416" height="2.79519" transform="rotate(93.5944 166.729 157.069)" fill="black"/>
<rect x="169.21" y="138.82" width="11.1416" height="2.79519" transform="rotate(91.9573 169.21 138.82)" fill="black"/>
<rect x="203.504" y="139.059" width="11.1416" height="2.79519" transform="rotate(98.2435 203.504 139.059)" fill="black"/>
<rect x="206.591" y="119.521" width="11.1416" height="2.79519" transform="rotate(97.4568 206.591 119.521)" fill="black"/>
<path d="M189.795 70.2427C185.323 71.9198 180.944 74.6684 179.313 75.8331L177.217 73.7367C178.335 72.0596 185.136 69.078 188.398 67.4475L189.795 70.2427Z" fill="#090A0F"/>
<path d="M208.76 93.7733C209.282 89.0254 208.805 83.8772 208.501 81.8965L211.318 80.9718C212.31 82.7264 211.902 90.1416 211.885 93.7875L208.76 93.7733Z" fill="#090A0F"/>
<path d="M174.029 80.2013C172.898 84.8418 172.705 90.0085 172.75 92.0117L169.837 92.5645C169.08 90.6963 170.444 83.3963 170.932 79.7831L174.029 80.2013Z" fill="#090A0F"/>
<path d="M206.54 76.9314C202.842 73.9077 198.265 71.5031 196.439 70.6787L197.198 67.8128C199.21 67.9365 205.206 72.3185 208.254 74.3184L206.54 76.9314Z" fill="#090A0F"/>
<path d="M180.636 201.589C184.893 199.422 188.938 196.202 190.428 194.862L192.746 196.712C191.822 198.503 185.396 202.226 182.337 204.21L180.636 201.589Z" fill="#090A0F"/>
<path d="M165.772 194.206C169.189 197.544 173.536 200.342 175.283 201.324L174.274 204.112C172.281 203.812 166.695 198.918 163.834 196.658L165.772 194.206Z" fill="#090A0F"/>
<circle cx="191.891" cy="89.1099" r="16.0723" fill="#090A0F"/>
<circle cx="191.892" cy="89.1102" r="0.698797" fill="#090A0F"/>
<circle cx="178.614" cy="187.64" r="11.1808" fill="#090A0F"/>
<circle cx="178.615" cy="187.64" r="0.48612" fill="#090A0F"/>
<path d="M47.668 217.537C49.0521 218.235 52.0972 221.308 53.2046 228.013C54.3119 234.718 57.8184 225.22 59.4332 219.632C59.6639 218.468 60.8174 218.794 63.5857 229.41C66.354 240.026 68.4302 228.712 69.1223 221.727C69.5837 219.865 71.1985 219.073 73.9668 230.807C76.7351 242.54 78.35 230.108 78.8114 222.426C79.2727 221.495 80.8876 222.286 83.6559 232.902C86.4242 243.518 88.9618 231.738 89.8846 224.521C90.5766 223.823 92.5144 224.8 94.7291 234.299" stroke="black" stroke-width="2"/>
<path d="M174.096 27.5487C170.183 28.6667 169.205 25.6852 169.205 24.0547L232.795 24.0547C233.354 27.4089 231.63 30.5768 230.699 31.7415C234.193 37.3318 227.904 44.3198 223.711 40.8258C221.475 43.621 216.723 47.8138 211.132 47.8138C210.434 55.5005 198.554 52.0066 199.952 47.8138C196.038 49.4909 191.333 47.115 189.47 45.7174C181.643 47.9535 178.988 42.2234 181.084 37.3318C176.891 37.3318 172.699 29.6451 174.096 27.5487Z" fill="black"/>
<rect x="195.22" y="35.2473" width="9.99597" height="1.95387" transform="rotate(4.7259 195.22 35.2473)" fill="white"/>
<path d="M222.313 24.0545L220.631 28.4658L218.819 27.7353L220.217 24.0545L222.313 24.0545Z" fill="white"/>
<rect x="207.965" y="35.415" width="9.99597" height="1.95387" transform="rotate(-32.8658 207.965 35.415)" fill="white"/>
<path d="M185.277 24.0545L190.745 32.3288L188.899 33.4009L183.88 24.7562L185.277 24.0545Z" fill="white"/>
<path d="M210.434 24.0547L195.061 24.0547C197.856 28.2475 201.816 28.2475 202.747 28.2475C206.102 28.2475 209.036 26.8499 210.434 24.0547Z" fill="white"/>
<circle cx="249.085" cy="96.7369" r="3.49398" fill="black"/>
<circle cx="253.277" cy="103.725" r="3.49398" fill="black"/>
<path d="M259.567 110.014C256.772 106.52 252.579 112.11 255.374 113.508L270.049 142.159C261.663 136.568 259.567 144.255 262.362 144.954C271.306 149.426 278.434 149.845 278.434 149.845L282.627 136.568C282.627 129.58 275.639 131.677 275.639 139.364L259.567 110.014Z" fill="black"/>
<circle cx="169.036" cy="251.484" r="2.29519" stroke="black"/>
<path d="M178.62 245.504V257.464L169.037 263.713L159.453 257.464V245.504L169.037 239.255L178.62 245.504ZM169.835 237.742C169.593 237.589 169.317 237.508 169.037 237.508C168.756 237.508 168.481 237.589 168.238 237.742L158.655 243.991C158.412 244.145 158.21 244.365 158.07 244.631C157.93 244.896 157.856 245.198 157.856 245.504V257.464C157.856 257.771 157.93 258.072 158.07 258.338C158.21 258.603 158.412 258.824 158.655 258.977L168.238 265.226C168.481 265.379 168.756 265.46 169.037 265.46C169.317 265.46 169.593 265.379 169.835 265.226L179.419 258.977C179.662 258.824 179.863 258.603 180.003 258.338C180.144 258.072 180.217 257.771 180.217 257.464V245.504C180.217 245.198 180.144 244.896 180.003 244.631C179.863 244.365 179.662 244.145 179.419 243.991L169.835 237.742Z" fill="black"/>
<circle cx="180.218" cy="271.051" r="2.29519" stroke="black"/>
<path d="M189.801 265.071V277.031L180.217 283.28L170.634 277.031V265.071L180.217 258.822L189.801 265.071ZM181.016 257.309C180.773 257.155 180.498 257.075 180.217 257.075C179.937 257.075 179.662 257.155 179.419 257.309L169.835 263.558C169.592 263.711 169.391 263.932 169.251 264.197C169.11 264.463 169.037 264.764 169.037 265.071V277.031C169.037 277.337 169.11 277.639 169.251 277.904C169.391 278.17 169.592 278.39 169.835 278.544L179.419 284.793C179.662 284.946 179.937 285.027 180.217 285.027C180.498 285.027 180.773 284.946 181.016 284.793L190.599 278.544C190.842 278.39 191.044 278.17 191.184 277.904C191.324 277.639 191.398 277.337 191.398 277.031V265.071C191.398 264.764 191.324 264.463 191.184 264.197C191.044 263.932 190.842 263.711 190.599 263.558L181.016 257.309Z" fill="black"/>
<circle cx="169.036" cy="290.617" r="2.29519" stroke="black"/>
<path d="M178.62 284.637V296.597L169.037 302.846L159.453 296.597V284.637L169.037 278.388L178.62 284.637ZM169.835 276.875C169.593 276.722 169.317 276.641 169.037 276.641C168.756 276.641 168.481 276.722 168.238 276.875L158.655 283.124C158.412 283.277 158.21 283.498 158.07 283.763C157.93 284.029 157.856 284.33 157.856 284.637V296.597C157.856 296.903 157.93 297.205 158.07 297.47C158.21 297.736 158.412 297.956 158.655 298.11L168.238 304.359C168.481 304.512 168.756 304.593 169.037 304.593C169.317 304.593 169.593 304.512 169.835 304.359L179.419 298.11C179.662 297.956 179.863 297.736 180.003 297.47C180.144 297.205 180.217 296.903 180.217 296.597V284.637C180.217 284.33 180.144 284.029 180.003 283.763C179.863 283.498 179.662 283.277 179.419 283.124L169.835 276.875Z" fill="black"/>
<path d="M115.711 176.063C115.944 173.966 116.41 169.634 116.41 169.075" stroke="black"/>
<path d="M117.808 164.882C119.438 162.319 124.237 157.335 130.386 157.894" stroke="black"/>
<path d="M131.783 160.689L130.386 170.472" stroke="black"/>
<path d="M131.084 173.966L147.856 193.532" stroke="black"/>
<path d="M147.856 196.328L126.193 210.304" stroke="black"/>
<path d="M122.699 213.099C120.37 214.962 116.689 220.227 120.602 226.376" stroke="black"/>
<circle cx="115.711" cy="178.159" r="2.29519" stroke="black"/>
<circle cx="121.302" cy="228.472" r="2.29519" stroke="black"/>
<circle cx="124.096" cy="211.701" r="2.29519" stroke="black"/>
<circle cx="149.253" cy="194.93" r="2.29519" stroke="black"/>
<circle cx="129.687" cy="172.569" r="2.29519" stroke="black"/>
<circle cx="132.482" cy="158.593" r="2.29519" stroke="black"/>
<circle cx="117.109" cy="166.978" r="2.29519" stroke="black"/>
<path d="M285.109 82.6042L287.904 86.797C285.109 90.1512 285.342 95.1825 285.808 97.2789L281.615 99.3753L284.41 111.255H287.904C289.022 115.727 292.563 118.709 294.193 119.64V125.231L303.976 130.821L307.47 128.026C309.147 130.262 317.253 131.52 318.651 130.821L321.446 135.713L331.928 132.219V128.026C334.723 128.026 341.012 123.833 342.41 121.737H346.603L351.494 115.448L350.097 109.158C353.451 103.568 352.426 99.3753 351.494 97.9777L354.988 95.8813L352.892 84.7006H348.699C348.699 80.2283 344.506 76.7809 342.41 75.6162V70.0258L335.422 64.4355L330.531 67.9294C328.853 65.1343 320.049 63.7367 318.651 64.4355L316.555 60.2427L305.374 62.3391V67.9294C299.783 68.4885 296.988 71.8893 296.289 73.5198H290.699L285.109 82.6042Z" fill="black"/>
<circle cx="318.651" cy="97.9777" r="27.2531" fill="white"/>
<circle cx="317.952" cy="97.2791" r="14.3735" stroke="black" stroke-width="2"/>
<path d="M241.917 208.351L243.884 211.302C241.917 213.662 242.081 217.203 242.408 218.678L239.458 220.153L241.425 228.513H243.884C244.671 231.66 247.162 233.758 248.309 234.414V238.348L255.194 242.282L257.653 240.315C258.833 241.888 264.537 242.774 265.521 242.282L267.488 245.724L274.864 243.265V240.315C276.831 240.315 281.256 237.364 282.24 235.889H285.19L288.633 231.463L287.649 227.038C290.009 223.104 289.288 220.153 288.633 219.17L291.091 217.695L289.616 209.827H286.666C286.666 206.679 283.715 204.253 282.24 203.434V199.5L277.322 195.566L273.88 198.025C272.7 196.058 266.504 195.074 265.521 195.566L264.045 192.615L256.177 194.091V198.025C252.243 198.418 250.276 200.811 249.785 201.959H245.851L241.917 208.351Z" fill="black"/>
<circle cx="265.521" cy="219.17" r="19.1781" fill="white"/>
<circle cx="265.029" cy="218.678" r="9.81841" stroke="black" stroke-width="2"/>
<circle cx="389.23" cy="77.1435" r="12.5783" fill="black"/>
<circle cx="389.23" cy="77.1435" r="9.78316" fill="white"/>
<circle cx="389.929" cy="77.8424" r="3.49398" fill="black"/>
<path d="M377.35 51.2881C378.981 53.1515 382.242 59.1146 382.242 68.0592" stroke="black"/>
<path d="M384.504 49.1917C384.193 51.5001 384.661 58.0691 389.023 65.8779" stroke="black"/>
<circle cx="378.049" cy="39.4087" r="12.5783" fill="black"/>
<circle cx="378.049" cy="39.4086" r="9.78316" fill="white"/>
<circle cx="378.747" cy="40.1075" r="3.49398" fill="black"/>
<circle cx="76.454" cy="280.675" r="12.5783" transform="rotate(-60.0224 76.454 280.675)" fill="black"/>
<circle cx="76.4539" cy="280.676" r="9.78316" transform="rotate(-60.0224 76.4539 280.676)" fill="white"/>
<circle cx="77.4081" cy="280.419" r="3.49398" transform="rotate(-60.0224 77.4081 280.419)" fill="black"/>
<path d="M48.1216 278.047C50.5505 277.565 57.3452 277.72 65.0932 282.189" stroke="black"/>
<path d="M49.8804 270.802C51.7244 272.225 57.6484 275.102 66.5922 275.226" stroke="black"/>
<circle cx="38.1805" cy="271.506" r="12.5783" transform="rotate(-60.0224 38.1805 271.506)" fill="black"/>
<circle cx="38.1805" cy="271.506" r="9.78316" transform="rotate(-60.0224 38.1805 271.506)" fill="white"/>
<circle cx="39.1352" cy="271.25" r="3.49398" transform="rotate(-60.0224 39.1352 271.25)" fill="black"/>
<path d="M230.374 273.447L224.784 309.086M233.169 273.447L227.579 309.086" stroke="black"/>
<path d="M243.147 280.372L212.934 300.085M245.018 282.448L214.806 302.161" stroke="black"/>
<circle cx="228.977" cy="290.917" r="20.1627" stroke="black" stroke-width="3"/>
<path d="M211.103 291.112L247.045 294.21M210.909 288.323L246.85 291.422" stroke="black"/>
<path d="M216.507 278.461L239.602 306.173M218.351 276.36L241.446 304.073" stroke="black"/>
</svg>
