<svg width="20" height="26" viewBox="0 0 20 26" fill="none" xmlns="http://www.w3.org/2000/svg">
<path d="M18.1818 10C18.1818 7.83005 17.3198 5.74897 15.7854 4.21458C14.251 2.68019 12.17 1.81818 10 1.81818C7.83005 1.81818 5.74897 2.68019 4.21458 4.21458C2.68019 5.74897 1.81818 7.83005 1.81818 10C1.81818 13.3564 4.50364 17.7309 10 22.9709C15.4964 17.7309 18.1818 13.3564 18.1818 10ZM10 25.4545C3.33273 19.3945 0 14.2418 0 10C0 7.34784 1.05357 4.8043 2.92893 2.92893C4.8043 1.05357 7.34784 0 10 0C12.6522 0 15.1957 1.05357 17.0711 2.92893C18.9464 4.8043 20 7.34784 20 10C20 14.2418 16.6673 19.3945 10 25.4545Z" fill="white"/>
</svg>
