<svg width="24" height="24" viewBox="0 0 24 24" fill="none" xmlns="http://www.w3.org/2000/svg">
<path d="M22.5 2.24525L16.4948 2.24528V0.750176C16.4948 0.335704 16.1591 0 15.7448 0C15.3304 0 14.9948 0.335704 14.9948 0.750176V2.2449H8.99475V0.750176C8.99475 0.335704 8.65913 0 8.24475 0C7.83038 0 7.49475 0.335704 7.49475 0.750176V2.2449H1.5C0.671625 2.2449 0 2.91668 0 3.74525V22.4996C0 23.3282 0.671625 24 1.5 24H22.5C23.3284 24 24 23.3282 24 22.4996V3.74525C24 2.91704 23.3284 2.24525 22.5 2.24525ZM22.5 22.4996H1.5V3.74525H7.49475V4.50105C7.49475 4.9155 7.83038 5.25123 8.24475 5.25123C8.65913 5.25123 8.99475 4.9155 8.99475 4.50105V3.74563H14.9948V4.50143C14.9948 4.9159 15.3304 5.25161 15.7448 5.25161C16.1591 5.25161 16.4948 4.9159 16.4948 4.50143V3.74563H22.5V22.4996ZM17.25 11.9975H18.75C19.164 11.9975 19.5 11.6615 19.5 11.2474V9.74701C19.5 9.33291 19.164 8.99683 18.75 8.99683H17.25C16.836 8.99683 16.5 9.33291 16.5 9.74701V11.2474C16.5 11.6615 16.836 11.9975 17.25 11.9975ZM17.25 17.9986H18.75C19.164 17.9986 19.5 17.6629 19.5 17.2484V15.748C19.5 15.3339 19.164 14.9979 18.75 14.9979H17.25C16.836 14.9979 16.5 15.3339 16.5 15.748V17.2484C16.5 17.6632 16.836 17.9986 17.25 17.9986ZM12.75 14.9979H11.25C10.836 14.9979 10.5 15.3339 10.5 15.748V17.2484C10.5 17.6629 10.836 17.9986 11.25 17.9986H12.75C13.164 17.9986 13.5 17.6629 13.5 17.2484V15.748C13.5 15.3343 13.164 14.9979 12.75 14.9979ZM12.75 8.99683H11.25C10.836 8.99683 10.5 9.33291 10.5 9.74701V11.2474C10.5 11.6615 10.836 11.9975 11.25 11.9975H12.75C13.164 11.9975 13.5 11.6615 13.5 11.2474V9.74701C13.5 9.33254 13.164 8.99683 12.75 8.99683ZM6.75 8.99683H5.25C4.836 8.99683 4.5 9.33291 4.5 9.74701V11.2474C4.5 11.6615 4.836 11.9975 5.25 11.9975H6.75C7.164 11.9975 7.5 11.6615 7.5 11.2474V9.74701C7.5 9.33254 7.164 8.99683 6.75 8.99683ZM6.75 14.9979H5.25C4.836 14.9979 4.5 15.3339 4.5 15.748V17.2484C4.5 17.6629 4.836 17.9986 5.25 17.9986H6.75C7.164 17.9986 7.5 17.6629 7.5 17.2484V15.748C7.5 15.3343 7.164 14.9979 6.75 14.9979Z" fill="white"/>
</svg>
