<svg width="20" height="20" viewBox="0 0 20 20" fill="none" xmlns="http://www.w3.org/2000/svg">
<path d="M19.7221 16.6307L16.9023 19.4279C16.4861 19.8547 15.9344 19.9993 15.3971 20C13.0209 19.9288 10.7748 18.7616 8.9307 17.5631C5.90367 15.3609 3.12624 12.6303 1.38307 9.33053C0.714503 7.94681 -0.0699637 6.1813 0.00498633 4.63681C0.0116697 4.05581 0.168236 3.4856 0.57742 3.1111L3.39719 0.292748C3.98272 -0.205302 4.54897 -0.0331024 4.92367 0.547031L7.19219 4.84873C7.43095 5.35835 7.29399 5.90438 6.93775 6.26853L5.89889 7.30686C5.83475 7.39471 5.79392 7.49471 5.79289 7.60355C6.19125 9.14558 7.3981 10.5669 8.46424 11.545C9.53035 12.5231 10.6763 13.8483 12.1639 14.162C12.3477 14.2133 12.5729 14.2313 12.7045 14.109L13.913 12.88C14.3296 12.5642 14.9311 12.4099 15.3758 12.6681H15.397L19.4889 15.0838C20.0896 15.4603 20.1522 16.188 19.7221 16.6307Z" fill="#D9D9D9"/>
</svg>
